<svg width="97" height="96" viewBox="0 0 97 96" fill="none" xmlns="http://www.w3.org/2000/svg">
<circle cx="48.4841" cy="48.3298" r="47.5529" fill="white"/>
<path d="M71.6495 84.5729C80.2321 79.3814 85.408 70.3684 88.3568 63.1587C89.5283 60.2945 86.2003 58.502 84.0735 60.7496C79.6887 65.3833 73.895 71.0807 67.9462 75.7121C55.7044 85.2428 39.8065 91.0197 39.8065 91.0197C39.8065 91.0197 55.7198 94.2086 71.6495 84.5729Z" fill="#CCE7FF"/>
<path d="M43.9139 21.9761L57.2606 6.50934L56.2327 15.0676C55.0477 24.9343 60.3336 34.4463 69.3381 38.6505L83.9109 45.4547H68.355C58.7959 45.4547 50.2333 51.3673 46.8468 60.3063L38.1728 83.2017V58.437C38.1728 50.3796 33.9564 42.9097 27.0583 38.746L15.2262 31.6042L29.458 29.7591C35.07 29.0315 40.2169 26.2605 43.9139 21.9761Z" fill="#0029FF"/>
</svg>
